<?xml version="1.0" standalone="no"?><!DOCTYPE svg PUBLIC "-//W3C//DTD SVG 1.1//EN" "http://www.w3.org/Graphics/SVG/1.1/DTD/svg11.dtd"><svg t="1630937333845" class="icon" viewBox="0 0 1024 1024" version="1.1" xmlns="http://www.w3.org/2000/svg" p-id="6426" xmlns:xlink="http://www.w3.org/1999/xlink" width="200" height="200"><defs><style type="text/css"></style></defs><path d="M960.84844 475.151515L586.286823 100.460606c-42.020202-42.020202-110.416162-42.020202-152.565656 0L63.038339 471.272727c-9.050505 9.050505-9.050505 23.789899 0 32.969697 9.050505 9.050505 23.789899 9.050505 32.969697 0l61.414141-61.414141v392.791919c0 66.068687 52.234343 119.59596 118.30303 119.59596h80.549495v-274.10101c0-34.909091 28.444444-63.353535 63.353536-63.353536h184.888888c34.909091 0 63.353535 28.444444 63.353536 63.353536v274.10101h77.317172c66.068687 0 120.242424-53.527273 120.242424-119.59596V445.284848l62.70707 62.707071c4.525253 4.525253 10.472727 6.852525 16.420203 6.852525s11.894949-2.327273 16.420202-6.852525c9.050505-9.050505 9.050505-23.789899-0.129293-32.840404z" fill="" p-id="6427"></path><path d="M604.387834 664.177778h-184.888889c-9.309091 0-16.808081 7.49899-16.808081 16.808081v274.10101h218.50505v-274.10101c0-9.309091-7.49899-16.808081-16.80808-16.808081z" fill="" p-id="6428"></path></svg>